<svg version="1.1" id="Layer_1" xmlns="http://www.w3.org/2000/svg" xmlns:xlink="http://www.w3.org/1999/xlink" x="0px" y="0px"
	 width="100%" viewBox="0 0 736 704" enable-background="new 0 0 736 704" xml:space="preserve">
<path fill="#000000" opacity="1.000000" stroke="none" 
	d="
M77.266487,555.384338 
	C82.070732,523.195190 86.092682,491.343018 89.566460,459.426147 
	C92.482536,432.633331 94.760307,405.778687 96.875076,378.908081 
	C99.761978,342.226776 101.606720,305.496765 103.014648,268.733307 
	C104.615265,226.938293 104.991531,185.131668 104.536644,143.319992 
	C104.310196,122.505608 103.496216,101.693916 102.660500,80.892548 
	C102.461517,75.939529 104.201996,74.506584 108.913834,74.645538 
	C114.391258,74.807083 119.888748,74.098907 125.380135,74.047699 
	C128.660889,74.017097 130.190002,72.693779 130.666962,69.465691 
	C131.566360,63.378502 132.944168,57.356552 133.695694,51.254841 
	C134.215805,47.032089 136.213120,46.175346 140.078827,46.730488 
	C160.508942,49.664387 180.934402,52.662819 201.416260,55.195980 
	C228.012939,58.485409 254.623764,61.686676 281.349060,63.838585 
	C303.246979,65.601799 325.114746,67.747330 347.018616,69.427002 
	C360.460724,70.457802 373.948273,70.884201 387.410858,71.661346 
	C451.486816,75.360260 515.622559,75.293236 579.764282,74.671593 
	C594.087891,74.532776 608.412170,74.064476 622.724854,73.476074 
	C626.287659,73.329620 627.453796,74.394981 627.487000,77.866089 
	C627.544434,83.854164 628.122742,89.836700 628.203491,95.825325 
	C628.246765,99.033279 629.257568,100.712372 632.659607,101.097595 
	C638.942688,101.809059 645.173645,102.977928 651.455444,103.704346 
	C655.260925,104.144402 656.587463,105.764961 655.981689,109.647232 
	C649.976257,148.133652 645.317749,186.792160 641.172363,225.520111 
	C637.824707,256.795166 635.190674,288.122437 633.134399,319.507111 
	C631.338379,346.919983 630.008789,374.347168 628.893616,401.798248 
	C627.025940,447.768860 627.074585,493.743011 627.495300,539.723755 
	C627.650696,556.706665 628.533386,573.683228 629.108887,590.661804 
	C629.355286,597.932129 629.383972,597.936523 622.440247,598.347900 
	C616.955322,598.672852 611.472656,599.118469 605.982788,599.245422 
	C602.908081,599.316528 601.558594,600.474304 601.147400,603.584412 
	C600.297424,610.014282 598.999634,616.383667 598.048035,622.801880 
	C597.522156,626.348450 596.007202,627.401672 592.296204,626.792786 
	C559.772217,621.456116 527.057434,617.438721 494.339233,613.572144 
	C469.230377,610.604736 444.008331,608.585938 418.801025,606.462158 
	C369.496155,602.308228 320.118774,600.158813 270.671997,598.823792 
	C237.177292,597.919312 203.694580,598.178528 170.209549,598.469727 
	C150.393814,598.642090 130.585968,599.669128 110.773239,600.267334 
	C104.324371,600.462097 104.066841,600.123474 103.836678,593.673706 
	C103.640785,588.184021 103.146416,582.695374 103.193604,577.209778 
	C103.227570,573.260742 101.160683,572.052551 97.794083,571.613403 
	C92.351822,570.903381 86.938171,569.970642 81.492752,569.289246 
	C75.969643,568.598145 75.290535,567.783508 76.193748,562.226135 
	C76.540680,560.091553 76.840034,557.949158 77.266487,555.384338 
M592.963623,105.585030 
	C576.444580,103.524040 559.952209,101.212791 543.400940,99.454842 
	C510.309753,95.940147 477.302551,91.709328 444.134888,88.812012 
	C409.124207,85.753708 374.074310,83.372856 338.969208,82.557304 
	C308.001495,81.837860 277.015381,81.200279 246.013107,81.766571 
	C212.858124,82.372192 179.687225,82.100304 146.523300,82.225754 
	C140.100433,82.250053 139.014648,82.976349 138.054810,89.428169 
	C134.725784,111.805183 131.341553,134.177872 128.390762,156.606461 
	C122.593643,200.669891 118.417480,244.902954 115.344872,289.237335 
	C112.742302,326.789703 110.848106,364.388245 110.354309,402.022797 
	C109.674492,453.834351 109.431335,505.652893 111.839714,557.446289 
	C112.079041,562.593018 113.977486,564.188416 118.765816,564.886414 
	C155.013046,570.170471 191.295502,575.136597 227.722809,579.046509 
	C261.494171,582.671204 295.317535,585.607178 329.206970,587.874573 
	C367.771240,590.454590 406.381409,591.987122 445.013641,592.634338 
	C491.997375,593.421387 538.974854,592.602356 585.940125,590.911682 
	C591.295410,590.718872 593.079895,588.903687 593.792480,583.868774 
	C597.381165,558.511475 600.947327,533.157227 604.169250,507.745575 
	C610.158325,460.509338 614.367737,413.109863 617.400146,365.623352 
	C619.564392,331.732605 620.880371,297.762177 621.544006,263.807129 
	C622.517517,213.999802 621.857910,164.185074 619.775269,114.397545 
	C619.616821,110.608994 618.251160,109.069405 614.617859,108.647293 
	C607.673706,107.840538 600.762939,106.746361 592.963623,105.585030 
M93.448189,478.927399 
	C90.820068,503.722931 88.210747,528.520508 85.554756,553.313049 
	C84.461136,563.521423 85.939308,563.498108 93.102844,563.045349 
	C94.728897,562.942566 96.401596,563.417542 98.039932,563.701111 
	C101.981552,564.383118 103.615982,562.550659 103.558899,558.767639 
	C103.533798,557.103577 103.582542,555.438660 103.582909,553.774109 
	C103.591515,514.507568 103.597244,475.241058 103.605476,435.974518 
	C103.608589,421.101807 102.788933,406.232819 103.509804,391.350098 
	C102.288261,400.251678 101.268982,409.157898 100.273926,418.066803 
	C98.041687,438.052368 95.821495,458.039307 93.448189,478.927399 
M268.403748,591.820801 
	C271.197815,591.820801 273.991882,591.820801 276.785950,591.820801 
	C267.284180,590.066162 257.730286,589.090698 248.185516,588.032898 
	C206.558258,583.419434 164.932419,578.793396 123.308914,574.146301 
	C111.747780,572.855530 110.213722,569.509094 110.417015,586.012390 
	C110.474876,590.709229 112.220810,591.946716 116.644943,591.935730 
	C166.907516,591.811584 217.170486,591.838623 268.403748,591.820801 
M441.500183,599.245544 
	C435.147339,599.245544 428.794464,599.245544 422.441620,599.245544 
	C440.294189,601.380676 458.150299,603.192261 475.988861,605.163086 
	C510.694214,608.997498 545.385864,612.955811 580.091553,616.787415 
	C591.153137,618.008667 591.165161,617.899658 592.590210,606.922791 
	C593.521362,599.750488 593.060608,599.208923 585.833313,599.210571 
	C538.055542,599.221375 490.277710,599.239319 441.500183,599.245544 
M620.791382,456.499939 
	C620.791382,445.120392 620.791382,433.740875 620.791382,422.361328 
	C618.006470,445.684143 615.590149,469.010712 613.050781,492.323883 
	C609.842834,521.775269 606.485840,551.210388 603.294373,580.663574 
	C602.075623,591.911011 602.203247,591.924805 613.725952,591.881226 
	C620.776123,591.854614 620.805603,591.854614 620.806091,584.484253 
	C620.808960,542.156128 620.796692,499.828064 620.791382,456.499939 
M628.302185,222.499939 
	C628.302185,241.228699 628.302185,259.957458 628.302185,278.686218 
	C629.330566,271.435944 630.059937,264.173248 630.861694,256.918549 
	C633.708984,231.156433 636.592590,205.398361 639.439758,179.636261 
	C641.557190,160.476639 643.663208,141.315689 645.728088,122.150345 
	C646.869995,111.551109 648.661743,110.945747 635.278564,110.021873 
	C628.277710,109.538574 628.282104,109.364899 628.282959,116.645645 
	C628.287048,151.597061 628.295654,186.548492 628.302185,222.499939 
M114.565292,220.119553 
	C116.450562,202.421234 118.264305,184.714920 120.238373,167.026505 
	C122.986031,142.406479 125.998413,117.815147 128.603928,93.180473 
	C129.761932,82.231773 129.436417,82.197334 118.354637,82.184959 
	C111.059418,82.176811 111.049438,82.176819 111.046913,89.727043 
	C111.034935,125.538971 111.150894,161.351501 110.971489,197.162582 
	C110.875420,216.338242 111.532639,235.520447 110.768860,254.709335 
	C111.983017,243.478668 113.197182,232.247986 114.565292,220.119553 
M215.683212,64.024811 
	C194.344116,61.712517 172.982315,59.588253 151.674683,57.015335 
	C139.467361,55.541290 139.542450,55.148964 139.066086,67.041672 
	C138.788620,73.968895 138.534393,73.975266 145.693451,73.979523 
	C191.685684,74.006866 237.677933,74.026703 283.670166,74.048027 
	C289.930481,74.050926 296.190796,74.048424 302.451111,74.048424 
	C302.446167,73.839539 302.441193,73.630661 302.436218,73.421776 
	C273.819122,70.319565 245.202042,67.217354 215.683212,64.024811 
M608.374084,98.875496 
	C608.705566,98.907784 609.039551,98.924278 609.368225,98.974648 
	C620.703369,100.711250 620.703308,100.711708 620.738586,89.362862 
	C620.760925,82.172775 620.760925,82.158508 613.540527,82.151176 
	C567.575256,82.104485 521.609985,82.051292 475.644745,82.037628 
	C469.163727,82.035706 462.688904,82.509109 456.206512,81.803307 
	C469.101898,83.715973 481.963287,85.280487 494.840942,86.696968 
	C515.504944,88.969910 536.180115,91.141457 556.849915,93.362320 
	C573.722290,95.175171 590.593689,96.997459 608.374084,98.875496 
z"/>
</svg>