<?xml version="1.0" encoding="utf-8"?>
<!-- Generator: Adobe Illustrator 24.3.0, SVG Export Plug-In . SVG Version: 6.00 Build 0)  -->
<svg version="1.1" id="Layer_1" xmlns="http://www.w3.org/2000/svg" xmlns:xlink="http://www.w3.org/1999/xlink" x="0px" y="0px"
	 viewBox="0 0 350 350" enable-background="new 0 0 350 350" xml:space="preserve">
<g>
	<path fill="#2AA9E1" d="M129.443,297.461l163.923-163.924c10.094-10.096,15.65-23.515,15.653-37.789
		c0-14.275-5.559-27.694-15.653-37.785c-10.094-10.096-23.512-15.655-37.787-15.655c-14.275,0-27.696,5.56-37.791,15.655
		L54.554,221.203c-0.025,0.023-0.049,0.043-0.075,0.066c-0.01,0.016-0.019,0.028-0.032,0.041l-0.578,0.575
		c-0.882,0.887-1.459,2.031-1.644,3.268l-11.183,75.865c-0.261,1.782,0.313,3.589,1.564,4.888c1.102,1.147,2.622,1.786,4.196,1.786
		c0.21,0,0.419-0.013,0.629-0.034l78.523-8.524C127.273,298.988,128.506,298.399,129.443,297.461z M255.579,53.955
		c11.162,0,21.657,4.348,29.551,12.241c7.894,7.894,12.242,18.388,12.242,29.552c-0.004,9.192-2.996,17.908-8.444,25.117
		L230.46,62.398C237.667,56.946,246.385,53.955,255.579,53.955z M221.905,70.313l59.106,59.104L135.272,275.163
		c-0.989-3.349-2.803-6.505-5.439-9.141c-4.415-4.419-10.28-6.501-16.079-6.294c0.206-5.797-1.876-11.662-6.293-16.076
		c-4.085-4.094-9.52-6.347-15.304-6.347c-0.259,0-0.511,0.027-0.768,0.036c0.008-0.257,0.038-0.507,0.038-0.766
		c0-5.779-2.253-11.215-6.342-15.3c-2.549-2.551-5.585-4.318-8.81-5.324L221.905,70.313z M122.048,287.842l-68.385,7.423
		l9.781-66.353c3.924-3.24,9.734-3.073,13.406,0.599c1.888,1.888,2.927,4.4,2.927,7.07c0,2.666-1.038,5.179-2.925,7.063
		c-2.274,2.274-2.274,5.962-0.002,8.236c0.636,0.638,1.391,1.076,2.187,1.356c2.05,0.722,4.414,0.283,6.049-1.356
		c3.777-3.775,10.359-3.775,14.136,0.004c3.897,3.899,3.901,10.237,0.006,14.132c-2.277,2.272-2.277,5.962,0,8.236
		c2.275,2.274,5.966,2.274,8.234,0c1.887-1.885,4.397-2.923,7.066-2.923l0,0c2.67,0,5.178,1.04,7.068,2.929
		C125.322,277.981,125.444,283.917,122.048,287.842z"/>
	<path fill="#2AA9E1" d="M143.027,239.878c1.136,1.139,2.628,1.707,4.117,1.707c1.489,0,2.979-0.568,4.117-1.707l101.573-101.575
		c2.272-2.274,2.272-5.964,0-8.236c-2.277-2.274-5.966-2.274-8.236,0L143.027,231.643
		C140.75,233.916,140.75,237.602,143.027,239.878z"/>
	<path fill="#2AA9E1" d="M115.286,241.643c1.489,0,2.983-0.567,4.117-1.706l101.575-101.575c2.274-2.274,2.274-5.964,0-8.236
		c-2.27-2.275-5.964-2.275-8.236,0L111.169,231.704c-2.276,2.27-2.276,5.959,0,8.233
		C112.303,241.076,113.797,241.643,115.286,241.643z"/>
	<path fill="#2AA9E1" d="M115.346,209.79c1.489,0,2.979-0.569,4.117-1.706l101.573-101.577c2.274-2.274,2.274-5.962,0-8.234
		c-2.277-2.274-5.961-2.274-8.236,0L111.229,199.848c-2.277,2.273-2.277,5.962,0,8.236
		C112.367,209.221,113.856,209.79,115.346,209.79z"/>
</g>
</svg>
