<?xml version="1.0" encoding="UTF-8"?>
<!DOCTYPE svg PUBLIC "-//W3C//DTD SVG 1.1//EN" "http://www.w3.org/Graphics/SVG/1.1/DTD/svg11.dtd">
<!-- Creator: CorelDRAW -->
<svg xmlns="http://www.w3.org/2000/svg" xml:space="preserve" width="6.82666in" height="6.82666in" style="shape-rendering:geometricPrecision; text-rendering:geometricPrecision; image-rendering:optimizeQuality; fill-rule:evenodd; clip-rule:evenodd"
viewBox="0 0 6.82666 6.82666"
 xmlns:xlink="http://www.w3.org/1999/xlink">
 <defs>
  <style type="text/css">
   <![CDATA[
    .fil0 {fill:none}
    .fil1 {fill:#E53935}
    .fil2 {fill:#EF5350}
   ]]>
  </style>
 </defs>
 <g id="Layer_x0020_1">
  <metadata id="CorelCorpID_0Corel-Layer"/>
  <g id="_486851536">
   <rect id="_486851488" class="fil0" width="6.82666" height="6.82666"/>
   <rect id="_486851320" class="fil0" x="0.853331" y="0.853331" width="5.12" height="5.12"/>
  </g>
  <g id="_486850480">
   <path id="_486851416" class="fil1" d="M2.0998 5.05816l0.00161024 -0.00175197 3.4981 -3.80676c0.0803701,-0.0874606 0.217004,-0.093122 0.304398,-0.0127047 0.0873622,0.0803937 0.0930197,0.21689 0.0127008,0.304295l-3.66057 3.98357c-0.00365748,0.00409843 -0.00699213,0.00799213 -0.0109016,0.0119055 -0.0400315,0.0400236 -0.0919134,0.061 -0.144374,0.0629567l-0.00096063 3.54331e-005 0 -0.541547z"/>
   <path id="_486850672" class="fil2" d="M2.08624 5.07291l0.013563 -0.0147559 0 0.541547c-0.0575394,0.00188976 -0.115685,-0.0191063 -0.159579,-0.063l-0.970248 -0.970252c-0.0841654,-0.0841654 -0.0841654,-0.220736 0,-0.304906 0.0841693,-0.0841693 0.22074,-0.0841693 0.304906,0l0.811358 0.811366z"/>
  </g>
 </g>
</svg>
